<?xml version="1.0" encoding="iso-8859-1"?>
<!-- Generator: Adobe Illustrator 19.0.0, SVG Export Plug-In . SVG Version: 6.00 Build 0)  -->
<svg version="1.1" id="Capa_1" xmlns="http://www.w3.org/2000/svg" xmlns:xlink="http://www.w3.org/1999/xlink" x="0px" y="0px"
	 viewBox="0 0 511.993 511.993" style="enable-background:new 0 0 511.993 511.993;" xml:space="preserve">
<linearGradient id="SVGID_1_" gradientUnits="userSpaceOnUse" x1="69.654" y1="448.2119" x2="416.1364" y2="101.7296" gradientTransform="matrix(1.0449 0 0 -1.0449 2.1993 543.3086)">
	<stop  offset="0" style="stop-color:#2499FF"/>
	<stop  offset="1" style="stop-color:#004DB1"/>
</linearGradient>
<circle style="fill:url(#SVGID_1_);" cx="255.996" cy="255.996" r="255.996"/>
<linearGradient id="SVGID_2_" gradientUnits="userSpaceOnUse" x1="182.2833" y1="344.7138" x2="307.4674" y2="219.5197" gradientTransform="matrix(1.0449 0 0 -1.0449 2.1993 543.3086)">
	<stop  offset="0" style="stop-color:#FFFFFF"/>
	<stop  offset="0.31" style="stop-color:#FCFCFC"/>
	<stop  offset="0.573" style="stop-color:#F2F1F3"/>
	<stop  offset="0.818" style="stop-color:#E1E0E3"/>
	<stop  offset="1" style="stop-color:#CFCDD3"/>
</linearGradient>
<path style="fill:url(#SVGID_2_);" d="M400.887,105.709c-17.409-17.409-40.635-26.997-65.401-26.997
	c-24.766,0-47.993,9.588-65.401,26.997L77.824,297.969l21.286,21.286l192.261-192.261c11.724-11.724,27.391-18.18,44.115-18.18
	c16.724,0,32.391,6.456,44.115,18.18c11.724,11.723,18.179,27.39,18.179,44.114s-6.456,32.391-18.179,44.115l-0.4,0.4l0,0
	l-172.73,172.73c-6.859,6.859-16.031,10.636-25.827,10.636s-18.968-3.777-25.826-10.636c-6.859-6.859-10.636-16.031-10.636-25.826
	c0-9.797,3.777-18.969,10.636-25.827l107.705-107.706l0,0l62.408-62.408c4.301-4.301,11.299-4.3,15.599,0
	c2.063,2.064,3.199,4.833,3.199,7.8c0,2.966-1.136,5.735-3.199,7.799L179.032,343.683l21.286,21.286l161.497-161.497
	c7.749-7.749,12.016-18.078,12.016-29.085c0-11.009-4.267-21.338-12.016-29.086c-7.749-7.749-18.079-12.016-29.086-12.016
	s-21.338,4.268-29.086,12.016l-3.963,3.963l-58.443,58.443L133.53,315.413c-12.544,12.544-19.453,29.276-19.453,47.113
	c0,17.837,6.909,34.569,19.453,47.113c12.544,12.545,29.277,19.454,47.114,19.454s34.569-6.909,47.114-19.454l26.314-26.314
	l146.814-146.814c17.409-17.409,26.997-40.635,26.997-65.401S418.296,123.118,400.887,105.709z"/>
<g>
</g>
<g>
</g>
<g>
</g>
<g>
</g>
<g>
</g>
<g>
</g>
<g>
</g>
<g>
</g>
<g>
</g>
<g>
</g>
<g>
</g>
<g>
</g>
<g>
</g>
<g>
</g>
<g>
</g>
</svg>
